<svg width="128" height="114" viewBox="0 0 128 114" fill="none" xmlns="http://www.w3.org/2000/svg">
<g filter="url(#filter0_d_2034_30606)">
<ellipse cx="64" cy="53.0127" rx="60" ry="52.5" fill="#BDBDBD"/>
<ellipse cx="64" cy="45.6443" rx="60" ry="45.1316" fill="#E0E0E0"/>
<path d="M59.1263 14.5433C59.1263 11.5421 56.6888 9.08445 53.6987 9.34326C47.5378 9.87653 41.5545 11.3143 36.0902 13.5903C29.0322 16.5301 23.0686 20.773 18.7529 25.9252C14.4372 31.0775 11.9092 36.9722 11.4034 43.0624C11.0415 47.4211 11.7238 51.7787 13.3981 55.9283C14.5841 58.8677 17.9904 60.0028 20.976 58.9384C25.0199 57.4967 26.5728 52.6206 25.8962 48.381C25.6517 46.8485 25.5914 45.2968 25.7203 43.7449C26.0743 39.4817 27.8439 35.3554 30.8649 31.7488C33.8859 28.1422 38.0604 25.1722 43.001 23.1144C46.3449 21.7216 49.9663 20.7772 53.7058 20.3123C56.6841 19.942 59.1263 17.5446 59.1263 14.5433Z" fill="#EEEEEE"/>
<path fill-rule="evenodd" clip-rule="evenodd" d="M74.1248 37.0721V39.8832C77.2825 40.8689 79.5832 43.7274 79.5832 47.1415V56.1925C79.5832 60.4192 76.079 63.8461 71.7589 63.8461H56.2426C51.9207 63.8461 48.4165 60.4192 48.4165 56.1925V47.1415C48.4165 43.7274 50.7191 40.8689 53.8749 39.8832V37.0721C53.8935 31.6066 58.4204 27.1794 63.9719 27.1794C69.5979 27.1794 74.1248 31.6066 74.1248 37.0721ZM64.0092 30.3677C67.7909 30.3677 70.8647 33.3738 70.8647 37.0721V39.4879H57.135V37.0357C57.1536 33.3555 60.2274 30.3677 64.0092 30.3677ZM65.6299 53.6802C65.6299 54.5729 64.9034 55.2834 63.9905 55.2834C63.0963 55.2834 62.3698 54.5729 62.3698 53.6802V49.6356C62.3698 48.7611 63.0963 48.0506 63.9905 48.0506C64.9034 48.0506 65.6299 48.7611 65.6299 49.6356V53.6802Z" fill="#9E9E9E"/>
</g>
<defs>
<filter id="filter0_d_2034_30606" x="0" y="0.512695" width="128" height="113" filterUnits="userSpaceOnUse" color-interpolation-filters="sRGB">
<feFlood flood-opacity="0" result="BackgroundImageFix"/>
<feColorMatrix in="SourceAlpha" type="matrix" values="0 0 0 0 0 0 0 0 0 0 0 0 0 0 0 0 0 0 127 0" result="hardAlpha"/>
<feOffset dy="4"/>
<feGaussianBlur stdDeviation="2"/>
<feComposite in2="hardAlpha" operator="out"/>
<feColorMatrix type="matrix" values="0 0 0 0 0 0 0 0 0 0 0 0 0 0 0 0 0 0 0.25 0"/>
<feBlend mode="normal" in2="BackgroundImageFix" result="effect1_dropShadow_2034_30606"/>
<feBlend mode="normal" in="SourceGraphic" in2="effect1_dropShadow_2034_30606" result="shape"/>
</filter>
</defs>
</svg>
