<svg width="108" height="113" viewBox="0 0 108 113" fill="none" xmlns="http://www.w3.org/2000/svg">
<rect x="8" y="11" width="100" height="102" rx="21" fill="#A31D1D"/>
<rect y="5" width="100" height="102" rx="21" fill="#F75555"/>
<path d="M55.24 40.88C55.24 36.9333 53.6133 33.9733 50.36 32L39 40.24L34.84 31.6C37.8267 29.8933 40.5467 28.6667 43 27.92C45.4533 27.1733 48.7867 26.8 53 26.8C59.8267 26.8 65.2933 28.08 69.4 30.64C69.88 32.08 70.12 33.4667 70.12 34.8C70.12 39.9733 67.48 45.04 62.2 50C64.0667 50 65.7467 50.2133 67.24 50.64C69.3733 52.72 70.9733 55.0133 72.04 57.52C73.16 59.9733 73.72 63.0933 73.72 66.88C73.72 71.9467 72.1733 75.7333 69.08 78.24C66.04 80.6933 61.08 81.92 54.2 81.92C47.32 81.92 40.84 80.2667 34.76 76.96L38.6 69.76C44.4667 73.5467 51.1333 75.5733 58.6 75.84C59.4 72.8533 59.8 69.0933 59.8 64.56C59.8 60.0267 59.4 57.0667 58.6 55.68C55.2933 56.5333 52.1467 57.8667 49.16 59.68L47.08 57.04L48.2 56C50.5467 53.76 52.3067 51.2533 53.48 48.48C54.6533 45.7067 55.24 43.1733 55.24 40.88Z" fill="white"/>
</svg>
