<svg width="108" height="113" viewBox="0 0 108 113" fill="none" xmlns="http://www.w3.org/2000/svg">
<rect x="8" y="11" width="100" height="102" rx="21" fill="#A31D1D"/>
<rect y="5" width="100" height="102" rx="21" fill="#F75555"/>
<path d="M53 26.8C59.8267 26.8 65.2933 28.08 69.4 30.64C70.04 32.72 70.36 34.8533 70.36 37.04C70.36 43.28 67.9867 49.7333 63.24 56.4C58.5467 63.0667 52.7333 68.5067 45.8 72.72V73.44L70.92 70.96V80H34.2L33.64 74.64C39.4 71.92 44.3333 67.1467 48.44 60.32C52.5467 53.4933 54.6 47.1733 54.6 41.36C54.6 36.8267 53.1867 33.7067 50.36 32L38.2 40.24L34.04 31.6C36.92 30 39.72 28.8 42.44 28C45.2133 27.2 48.7333 26.8 53 26.8Z" fill="white"/>
</svg>
