<svg width="21" height="20" viewBox="0 0 21 20" fill="none" xmlns="http://www.w3.org/2000/svg">
<path fill-rule="evenodd" clip-rule="evenodd" d="M10.6461 10.9708L10.9412 10.9695C12.1116 10.9594 13.1558 10.8888 13.8176 10.7672C13.8295 10.7672 14.4859 10.6344 14.7043 10.5499C15.0201 10.4172 15.2881 10.1772 15.458 9.87627C15.5791 9.63537 15.6406 9.38264 15.6406 9.1181C15.631 8.91015 15.5263 8.5672 15.4386 8.32243L15.3607 8.11902C14.8255 6.77177 13.0768 4.19634 12.0074 3.20999L11.9327 3.13727L11.5824 2.81272C11.3144 2.60818 10.9867 2.5 10.6342 2.5C10.3184 2.5 10.0027 2.59636 9.74747 2.78909C9.6648 2.84678 9.55873 2.93972 9.46911 3.02244L9.13845 3.33833C8.03706 4.42538 6.49215 6.77904 5.98026 7.99902C5.96925 7.99902 5.65256 8.7572 5.64062 9.1181V9.16628C5.64062 9.71991 5.9564 10.2372 6.46677 10.5017C6.60629 10.574 6.87961 10.6433 7.11965 10.696L7.57288 10.7908C8.30172 10.899 9.41977 10.9708 10.6461 10.9708ZM9.37534 16.2473C9.37534 16.9391 9.94171 17.5 10.6403 17.5C11.3388 17.5 11.9052 16.9391 11.9052 16.2473L11.6325 13.1646C11.6325 12.6219 11.1892 12.1819 10.6403 12.1819C10.0922 12.1819 9.64797 12.6219 9.64797 13.1646L9.37534 16.2473Z" fill="#9DA3AE"/>
</svg>
