<svg width="22" height="18" viewBox="0 0 22 18" fill="none" xmlns="http://www.w3.org/2000/svg">
<path d="M12.3571 3.45056C12.3068 2.96422 12.2543 2.45963 12.1254 1.95611C11.7741 0.75153 10.801 9.59513e-06 9.75762 9.59513e-06C9.17565 -0.00213761 8.43954 0.356445 8.0222 0.719322L4.56287 3.61697H2.75194C1.41918 3.61697 0.347511 4.6444 0.145131 6.12705C-0.0268386 7.55064 -0.0687825 10.2379 0.145131 11.8042C0.330733 13.3706 1.35416 14.383 2.75194 14.383H4.56287L8.08931 17.3236C8.45107 17.6382 9.08967 17.9989 9.67688 17.9989C9.71463 18 9.74819 18 9.78174 18C10.845 18 11.7814 17.2206 12.1327 16.0192C12.2659 15.5082 12.312 15.0293 12.3571 14.5666L12.4043 14.1082C12.5846 12.6213 12.5846 5.36908 12.4043 3.89288L12.3571 3.45056Z" fill="#1A96F0"/>
<path opacity="0.4" d="M16.4049 3.49468C16.1165 3.06953 15.545 2.96325 15.1267 3.25849C14.7125 3.55587 14.6097 4.14206 14.8981 4.56613C15.7002 5.74816 16.1417 7.32206 16.1417 9.0001C16.1417 10.6771 15.7002 12.252 14.8981 13.4341C14.6097 13.8581 14.7125 14.4443 15.1277 14.7417C15.2829 14.8512 15.4643 14.9092 15.651 14.9092C15.9519 14.9092 16.2329 14.7578 16.4049 14.5055C17.4178 13.0132 17.9767 11.0582 17.9767 9.0001C17.9767 6.94201 17.4178 4.98698 16.4049 3.49468Z" fill="#1A96F0"/>
<path opacity="0.4" d="M19.5682 0.457259C19.2819 0.0331865 18.7083 -0.0752471 18.291 0.221067C17.8768 0.518454 17.774 1.10464 18.0613 1.52871C19.4182 3.52776 20.1659 6.18169 20.1659 8.9999C20.1659 11.8192 19.4182 14.4731 18.0613 16.4722C17.774 16.8973 17.8768 17.4824 18.292 17.7798C18.4472 17.8893 18.6276 17.9473 18.8142 17.9473C19.1152 17.9473 19.3972 17.7959 19.5682 17.5436C21.1369 15.2343 22.0009 12.2003 22.0009 8.9999C22.0009 5.80164 21.1369 2.76657 19.5682 0.457259Z" fill="#1A96F0"/>
</svg>
