<svg width="231" height="67" viewBox="0 0 231 67" fill="none" xmlns="http://www.w3.org/2000/svg">
  <path
    d="M1.85448 33.0803L13.8172 26.0988V13.6316C15.8109 10.1408 15.5261 1.71659 42.0149 1.16454C59.7767 0.794364 161.072 1.16454 209.493 1.16454C216.328 1.82945 230 5.75243 230 16.1251C230 26.4977 230 45.3812 230 53.5264C230 57.6821 223.848 65.9935 199.239 65.9935C174.63 65.9935 81.3209 65.9935 37.7425 65.9935C29.7674 66.1597 13.8172 63.2009 13.8172 50.0356C13.8172 36.8703 13.8172 43.5527 13.8172 41.558C9.54478 39.0645 1 33.978 1 33.579"
    stroke="#D1CACA"
  />
  <path
    d="M1.85448 33.0803L13.8172 26.0988V13.6316C15.8109 10.1408 15.5261 1.71659 42.0149 1.16454C59.7767 0.794364 161.072 1.16454 209.493 1.16454C216.328 1.82945 230 5.75243 230 16.1251C230 26.4977 230 45.3812 230 53.5264C230 57.6821 223.848 65.9935 199.239 65.9935C174.63 65.9935 81.3209 65.9935 37.7425 65.9935C29.7674 66.1597 13.8172 63.2009 13.8172 50.0356C13.8172 36.8703 13.8172 43.5527 13.8172 41.558C9.54478 39.0645 1 33.978 1 33.579"
    stroke="#D1CACA"
  />
</svg>