<svg width="23" height="27" viewBox="0 0 23 27" fill="none" xmlns="http://www.w3.org/2000/svg">
<path fill-rule="evenodd" clip-rule="evenodd" d="M11.7244 17.6565H11.2727C8.16835 17.6565 5.65207 15.1704 5.65207 12.1061V6.13436C5.65207 3.0688 8.16835 0.583984 11.2727 0.583984H11.7244C14.8288 0.583984 17.3463 3.0688 17.3463 6.13436V12.1061C17.3463 15.1704 14.8288 17.6565 11.7244 17.6565ZM19.9753 11.9285C19.9753 11.2452 20.5359 10.6929 21.2266 10.6929C21.9173 10.6929 22.4779 11.2452 22.4779 11.9285C22.4779 17.4875 18.2161 22.0778 12.7506 22.6944V25.1817C12.7506 25.8638 12.19 26.4173 11.4993 26.4173C10.8074 26.4173 10.2481 25.8638 10.2481 25.1817V22.6944C4.78132 22.0778 0.519531 17.4875 0.519531 11.9285C0.519531 11.2452 1.08009 10.6929 1.77079 10.6929C2.46148 10.6929 3.02205 11.2452 3.02205 11.9285C3.02205 16.5435 6.82462 20.2986 11.4993 20.2986C16.1728 20.2986 19.9753 16.5435 19.9753 11.9285Z" fill="#3066B1"/>
</svg>
