<svg width="258" height="73" viewBox="0 0 258 73" fill="none" xmlns="http://www.w3.org/2000/svg">
<path d="M126.817 71.6149L99.4275 67.7582L50.4691 67.3958C36.7653 66.6854 3.68283 66.5276 1.5748 58.421C0.161273 52.9853 1.84393 22.0574 1.95338 7.26837C4.57994 5.19983 20.0164 1.13812 60.7496 1.4396C101.483 1.74107 175.638 2.28991 207.624 2.52664C223.944 2.64742 256.569 4.76806 256.513 12.2844C256.457 19.8007 256.246 48.3 256.148 61.6102C256.783 64.0508 245.127 68.8365 193.427 68.4539C141.727 68.0712 167.969 68.2655 160.136 68.2075C150.334 69.4399 130.34 71.9019 128.773 71.8903" stroke="#D1CACA"/>
<path d="M126.817 71.6149L99.4275 67.7582L50.4691 67.3958C36.7653 66.6854 3.68283 66.5276 1.5748 58.421C0.161273 52.9853 1.84393 22.0574 1.95338 7.26837C4.57994 5.19983 20.0164 1.13812 60.7496 1.4396C101.483 1.74107 175.638 2.28991 207.624 2.52664C223.944 2.64742 256.569 4.76806 256.513 12.2844C256.457 19.8007 256.246 48.3 256.148 61.6102C256.783 64.0508 245.127 68.8365 193.427 68.4539C141.727 68.0712 167.969 68.2655 160.136 68.2075C150.334 69.4399 130.34 71.9019 128.773 71.8903" stroke="#D1CACA"/>
</svg>
