<svg width="24" height="19" viewBox="0 0 24 19" fill="none" xmlns="http://www.w3.org/2000/svg">
<path fill-rule="evenodd" clip-rule="evenodd" d="M13.0436 3.64226C12.9905 3.1289 12.9351 2.59627 12.799 2.06478C12.4282 0.793282 11.401 1.01282e-05 10.2997 1.01282e-05C9.68542 -0.00225636 8.90841 0.376248 8.46788 0.759284L4.81637 3.81791H2.90483C1.49802 3.81791 0.366817 4.90243 0.153194 6.46744C-0.0283297 7.97012 -0.0726038 10.8066 0.153194 12.46C0.349107 14.1134 1.4294 15.1821 2.90483 15.1821H4.81637L8.53872 18.2861C8.92058 18.6181 9.59465 18.9989 10.2145 18.9989C10.2543 19 10.2898 19 10.3252 19C11.4475 19 12.4359 18.1773 12.8067 16.9092C12.9464 16.3731 12.9954 15.8706 13.0427 15.3849L13.0436 15.3759L13.0934 14.892C13.2838 13.3224 13.2838 5.66737 13.0934 4.10916L13.0436 3.64226ZM17.3186 3.68876C17.0142 3.24 16.411 3.12781 15.9694 3.43945C15.5322 3.75336 15.4237 4.37211 15.7281 4.81974C16.5748 6.06745 17.0408 7.72878 17.0408 9.50005C17.0408 11.2702 16.5748 12.9326 15.7281 14.1803C15.4237 14.628 15.5322 15.2467 15.9705 15.5606C16.1343 15.6762 16.3258 15.7374 16.5228 15.7374C16.8405 15.7374 17.1371 15.5776 17.3186 15.3113C18.3878 13.7361 18.9778 11.6725 18.9778 9.50005C18.9778 7.32761 18.3878 5.26398 17.3186 3.68876ZM19.3079 0.233348C19.7484 -0.0794279 20.3538 0.0350299 20.656 0.482662C22.3119 2.92027 23.2239 6.12396 23.2239 9.49989C23.2239 12.8781 22.3119 16.0806 20.656 18.5183C20.4756 18.7846 20.1778 18.9444 19.8602 18.9444C19.6632 18.9444 19.4728 18.8832 19.309 18.7676C18.8706 18.4537 18.7622 17.836 19.0655 17.3873C20.4977 15.2772 21.2869 12.4758 21.2869 9.49989C21.2869 6.52512 20.4977 3.72374 19.0655 1.61364C18.7622 1.16601 18.8706 0.547257 19.3079 0.233348Z" fill="#434445"/>
</svg>
