<svg width="24" height="19" viewBox="0 0 24 19" fill="none" xmlns="http://www.w3.org/2000/svg">
<path d="M20.7109 0.00971279C20.3126 -0.0270439 19.8878 0.0417589 19.5146 0.195165C18.6437 0.55242 17.9289 1.36752 17.9444 2.3835C17.947 2.54733 17.9433 2.705 17.9444 2.86567C17.9528 3.72261 18.0796 4.89853 17.9444 5.94418C17.8069 7.01238 17.4025 7.95596 16.7481 8.31796C14.4967 9.56301 0.120826 15.9449 0 16.0328C2.19281 15.736 4.78519 15.4892 4.78519 16.6262C4.78519 17.9425 2.39259 19 2.39259 19H7.17778C8.11209 18.3318 8.37407 17.438 8.37407 16.6262H9.57037C13.9321 16.6262 14.8149 14.8518 15.5519 14.2524C15.7468 16.3319 16.3629 18.6178 16.7481 19H20.337C20.337 19 19.4769 16.7936 19.1407 14.2524C18.7687 11.4419 18.9757 8.22183 20.337 7.13107C20.4149 7.06872 20.4853 7.03879 20.5613 6.98271C20.5715 6.98609 20.5885 6.97945 20.5987 6.98271C21.1822 7.16934 21.7928 7.16816 22.3558 6.94562C23.0341 6.67857 23.9259 5.77327 23.9259 4.75728C23.9259 3.97868 23.7872 2.87072 23.6269 2.45768C23.0751 1.0432 21.9058 0.119983 20.7109 0.00971279ZM20.9352 1.79005C21.5955 1.79005 22.1315 2.32178 22.1315 2.97695C22.1315 3.63211 21.5955 4.16384 20.9352 4.16384C20.2748 4.16384 19.7389 3.63211 19.7389 2.97695C19.7389 2.32178 20.2748 1.79005 20.9352 1.79005ZM9.57037 3.57039C8.3334 3.57039 6.80453 3.6333 4.78519 4.75728C2.2275 6.18274 1.16878 8.54466 1.1963 10.6917C1.19869 10.8377 1.1951 11.0612 1.1963 11.3223C0.665141 11.6617 0.0296083 12.043 0.560764 12.9914L0.672917 13.2139C0.96242 13.7872 1.65687 14.0385 2.24306 13.7703L15.6266 7.65034C16.2403 7.37023 16.4889 6.61774 16.1874 6.01836L16.0752 5.79582C15.7857 5.22255 15.0913 4.97122 14.5051 5.23946L13.9817 5.462C13.3704 4.77242 11.9666 3.57039 9.57037 3.57039Z" fill="#434445"/>
</svg>
